<?xml version="1.0" standalone="no"?>
<!DOCTYPE svg PUBLIC "-//W3C//DTD SVG 20010904//EN"
 "http://www.w3.org/TR/2001/REC-SVG-20010904/DTD/svg10.dtd">
<svg version="1.0" xmlns="http://www.w3.org/2000/svg"
 width="441.000000pt" height="441.000000pt" viewBox="0 0 441.000000 441.000000"
 preserveAspectRatio="xMidYMid meet">
<metadata>
Created by potrace 1.11, written by Peter Selinger 2001-2013
</metadata>
<g transform="translate(0.000000,441.000000) scale(0.100000,-0.100000)"
fill="#000000" stroke="none">
<path d="M975 3341 c-22 -10 -49 -26 -60 -34 -17 -13 -20 -13 -30 6 -12 23
-51 41 -60 27 -4 -6 2 -10 12 -10 22 0 43 -18 43 -38 0 -7 -11 -30 -25 -50
-30 -45 -33 -104 -6 -148 10 -17 56 -68 102 -113 55 -54 76 -81 61 -76 -13 4
-73 7 -135 7 -63 1 -132 7 -157 14 -63 19 -62 19 -54 -33 13 -85 64 -141 161
-175 59 -20 78 -21 258 -3 33 3 66 2 73 -3 20 -13 6 -72 -30 -128 l-29 -47
-31 32 c-19 19 -52 37 -85 47 -238 69 -546 -98 -683 -371 -51 -102 -70 -177
-66 -267 4 -111 41 -166 146 -217 51 -24 65 -26 185 -26 135 0 177 9 285 57
45 21 124 71 148 95 20 19 22 16 11 -16 -17 -48 -8 -95 18 -99 36 -5 104 32
170 92 l62 57 -20 -46 c-11 -25 -19 -58 -17 -73 2 -23 8 -28 36 -30 76 -7 157
55 297 226 33 41 68 84 78 95 21 26 0 -35 -77 -222 -26 -62 -45 -115 -44 -117
2 -1 19 2 38 8 32 10 38 19 63 82 55 146 188 306 254 306 27 0 41 -24 39 -68
0 -17 2 -32 5 -32 15 0 38 38 44 73 10 50 -14 87 -56 87 -42 0 -65 -14 -133
-79 -64 -61 -64 -62 5 55 22 36 20 55 -3 37 -7 -6 -31 -14 -53 -17 -30 -5 -45
-15 -61 -39 -39 -60 -183 -235 -234 -286 -51 -51 -94 -72 -110 -55 -26 27 146
354 185 354 18 0 20 20 3 21 -45 4 -172 1 -208 -5 -70 -11 -130 -59 -200 -161
-104 -152 -295 -253 -490 -259 -105 -4 -168 14 -216 62 -167 167 66 636 368
742 105 37 194 32 236 -13 28 -30 37 -103 18 -157 -22 -63 7 -51 44 19 22 41
79 106 189 217 87 89 166 177 177 199 13 28 19 61 19 110 0 98 -29 154 -155
303 -11 13 -24 20 -30 17 -7 -4 -1 -18 14 -36 38 -45 23 -95 -55 -179 -49 -53
-78 -113 -79 -157 0 -39 -9 -41 -36 -10 -11 12 -65 64 -121 116 -97 89 -120
122 -107 154 13 36 74 25 74 -13 0 -23 -18 -35 -45 -32 -17 1 -17 0 4 -10 20
-11 26 -9 42 10 41 52 -30 112 -77 65 -16 -16 -16 -16 -9 7 22 72 97 132 160
128 37 -3 40 -5 40 -33 0 -31 -10 -35 -50 -20 -19 7 -19 7 -3 -10 21 -23 64
-13 71 17 7 25 -7 46 -38 58 -18 8 -17 9 7 9 61 2 118 -50 118 -107 0 -81
-107 -145 -155 -91 -16 17 -17 25 -8 50 7 17 7 27 1 23 -17 -11 -26 -48 -16
-70 12 -27 49 -45 80 -39 94 18 139 95 103 178 -30 71 -109 96 -190 58z m416
-270 c38 -78 41 -146 8 -216 -19 -40 -108 -140 -176 -198 -22 -19 -22 -19 -21
14 1 19 30 89 70 168 66 131 75 164 59 206 -6 14 -9 6 -14 -31 -4 -33 -20 -75
-49 -124 -24 -41 -50 -90 -57 -107 l-13 -33 -20 38 c-23 45 -26 115 -6 162 8
19 38 62 65 95 59 70 73 95 73 127 0 22 1 22 25 -7 14 -16 39 -59 56 -94z
m-516 -187 c151 -1 199 -13 230 -56 15 -23 15 -23 -47 -31 -123 -16 -172 -13
-229 16 -64 34 -77 28 -17 -7 70 -41 130 -48 254 -33 18 2 46 -2 63 -9 35 -15
43 -39 10 -31 -12 3 -45 2 -73 -4 -203 -37 -350 19 -380 145 -7 27 -6 28 21
20 15 -4 91 -9 168 -10z m484 -718 c21 -25 -28 -109 -144 -241 -46 -54 -101
-95 -124 -95 -30 0 31 151 98 240 69 93 140 133 170 96z"/>
<path d="M782 3334 c-24 -17 -29 -53 -10 -72 14 -14 44 -16 52 -4 3 5 -4 8
-16 8 -11 -1 -25 7 -32 17 -9 15 -7 22 13 38 29 24 23 35 -7 13z"/>
<path d="M2803 2689 c-75 -48 -109 -101 -257 -395 -129 -254 -241 -392 -336
-411 l-33 -6 40 54 c59 78 85 135 90 198 5 52 4 57 -20 70 -47 25 -139 -4
-230 -74 -51 -39 -141 -167 -157 -223 -16 -61 -13 -110 9 -122 45 -24 145 -2
207 45 19 15 46 25 66 25 54 1 110 33 166 96 57 63 59 64 37 11 -8 -20 -17
-58 -21 -86 -5 -45 -3 -53 20 -75 64 -65 170 -10 299 153 29 36 62 78 75 92
12 14 29 34 37 45 26 34 16 5 -31 -94 -89 -187 -93 -215 -37 -220 76 -7 160
55 282 208 41 52 84 104 94 115 21 23 20 19 -75 -213 -27 -68 -48 -125 -46
-128 3 -2 19 1 37 7 25 9 37 24 60 73 41 91 96 173 156 232 47 46 115 93 115
79 0 -3 -27 -62 -60 -131 -84 -176 -95 -237 -44 -250 39 -10 95 16 149 70 l53
51 -2 -55 c-1 -50 1 -55 21 -58 36 -5 104 32 170 92 l62 57 -20 -46 c-11 -25
-19 -58 -17 -73 4 -39 53 -42 123 -7 70 34 210 183 191 202 -4 4 -21 -11 -39
-33 -53 -65 -129 -134 -155 -141 -54 -13 -46 34 33 187 56 108 100 170 120
170 18 0 20 20 3 21 -7 1 -59 1 -115 1 -82 -1 -110 -5 -142 -22 -60 -30 -105
-74 -157 -151 -85 -128 -197 -226 -223 -195 -7 8 -8 23 -2 42 11 38 99 214
117 235 23 25 34 76 21 87 -35 28 -121 -15 -224 -111 l-66 -62 33 60 c19 33
41 71 50 85 9 14 20 33 23 44 6 15 4 17 -10 11 -10 -4 -36 -12 -58 -17 -35 -9
-49 -22 -110 -105 -38 -53 -108 -136 -155 -185 -67 -70 -91 -90 -115 -91 -26
-2 -30 1 -27 23 3 27 52 132 132 279 28 51 49 95 47 97 -1 2 -21 -3 -42 -11
-22 -8 -47 -14 -55 -15 -8 0 -26 -17 -40 -37 -87 -128 -238 -298 -294 -330
-29 -17 -81 -16 -96 2 -17 20 -7 88 23 162 19 48 46 80 144 178 278 277 426
557 294 554 -15 0 -54 -18 -88 -40z m80 -1 c11 -35 -44 -157 -129 -284 -49
-75 -210 -254 -228 -254 -7 0 3 20 136 259 77 137 136 228 174 266 28 28 40
31 47 13z m-655 -543 c11 -93 -131 -318 -214 -339 -59 -15 -65 44 -13 151 82
170 217 282 227 188z m1571 17 c12 -23 -11 -72 -77 -157 -87 -112 -179 -191
-199 -171 -12 11 21 98 64 171 80 138 182 213 212 157z"/>
<path d="M2982 2444 c-25 -17 -30 -62 -7 -70 45 -18 96 28 75 66 -13 24 -38
26 -68 4z"/>
<path d="M1013 1463 c-42 -41 -25 -94 34 -113 50 -16 72 -37 66 -61 -10 -37
-64 -47 -99 -19 -16 14 -35 4 -28 -14 6 -16 47 -36 74 -36 55 0 98 51 85 103
-5 19 -20 31 -60 47 -30 12 -56 28 -59 36 -9 22 32 57 57 49 37 -11 50 -11 54
1 5 14 -44 34 -77 32 -14 -2 -35 -12 -47 -25z"/>
<path d="M1269 1456 c-3 -105 -1 -228 5 -233 14 -14 29 18 28 57 -2 38 0 40
27 40 76 0 119 41 107 102 -8 44 -38 61 -108 63 l-58 2 -1 -31z m109 -6 c19 0
31 -42 19 -65 -14 -28 -27 -35 -65 -35 l-33 0 2 48 c3 51 13 65 44 57 11 -2
26 -5 33 -5z"/>
<path d="M1612 1481 c-7 -4 -25 -41 -41 -82 -16 -41 -38 -97 -49 -126 -19 -46
-19 -51 -4 -49 15 2 33 28 45 60 2 5 28 10 60 11 56 1 56 1 71 -35 8 -21 21
-37 30 -37 9 0 16 3 16 7 0 14 -93 236 -103 247 -7 7 -18 9 -25 4z m16 -159
c-22 -2 -42 -1 -45 2 -3 3 5 31 17 62 l23 56 22 -58 22 -59 -39 -3z"/>
<path d="M2007 1470 c-27 -21 -34 -51 -21 -85 4 -9 31 -27 60 -40 39 -17 54
-29 54 -44 0 -44 -47 -60 -96 -33 -21 11 -34 7 -34 -9 0 -5 14 -16 31 -25 57
-29 123 -1 132 57 7 38 -10 58 -69 84 -29 13 -54 30 -54 38 0 24 34 47 61 41
42 -10 52 -9 56 2 4 13 -18 24 -62 31 -21 3 -39 -3 -58 -17z"/>
<path d="M2886 1479 c-108 -31 -121 -196 -18 -245 81 -38 171 13 179 103 10
101 -67 169 -161 142z m96 -46 c53 -48 37 -152 -28 -173 -51 -17 -99 7 -115
59 -29 98 72 178 143 114z"/>
<path d="M2293 1403 c-75 -184 -75 -185 -56 -181 10 2 24 17 32 33 18 39 20
40 78 40 45 0 49 -2 65 -34 15 -30 48 -52 48 -32 0 4 -22 61 -48 127 -62 153
-74 158 -119 47z m55 -81 c-22 -2 -42 -1 -44 1 -3 2 5 31 17 62 l22 59 22 -60
22 -59 -39 -3z"/>
<path d="M2570 1352 l0 -129 73 1 c57 1 72 4 72 16 0 11 -12 15 -50 14 -36 0
-52 4 -56 15 -3 9 -5 60 -4 114 1 87 -1 97 -17 97 -16 0 -18 -11 -18 -128z"/>
<path d="M3170 1356 c0 -81 4 -127 11 -132 19 -12 24 12 23 107 -1 82 0 91 13
73 7 -10 24 -32 37 -49 13 -16 43 -54 65 -83 23 -29 46 -50 51 -47 6 4 10 62
10 131 0 102 -3 124 -15 124 -11 0 -15 -20 -17 -96 l-3 -95 -73 95 c-40 53
-80 96 -87 96 -12 0 -15 -22 -15 -124z"/>
</g>
</svg>
